<svg xmlns="http://www.w3.org/2000/svg"
aria-label="Glass" role="img"
viewBox="0 0 512 512"><g fill="none" fill-rule="evenodd"><path fill="#fc0" d="M0 0h512v512H0z"/><path fill="#000" fill-rule="nonzero" d="m312.282 360.186c0 20.491-3.076 35.882-9.144 45.741-6.141 9.977-13.08 14.05-23.946 14.05-8.087 0-14.896-4.182-18.215-11.184-5.278-11.139-.943-25.752 11.588-39.094 9.712-10.343 24.018-22.825 39.717-35.876zm47.444-86.038c-9.75 8.209-20.698 17.102-31.285 25.698l-.035.027v-71.242c0-3.65-2.483-6.84-6.036-7.755-3.56-.916-7.288.67-9.07 3.859-.214.385-21.602 38.506-34.864 55.61-21.509 27.737-41.012 40.107-63.247 40.107-35.33 0-59.065-33.9-59.065-84.356 0-36.443 9.494-69.226 27.452-94.807 21.014-29.929 52.587-49.266 80.435-49.266 34.147 0 49.435 25.495 49.435 50.764 0 27.015-15.014 52.18-42.274 70.852-3.665 2.51-4.59 7.499-2.06 11.142 2.525 3.642 7.545 4.563 11.208 2.05 31.76-21.754 49.25-51.6 49.25-84.044 0-39.323-26.963-66.787-65.56-66.787-33.464 0-69.352 21.503-93.653 56.118C150.497 160.404 140 196.358 140 236.095c0 59.101 30.92 100.38 75.189 100.38 35.923 0 60.59-26.452 76.017-46.35 6.382-8.228 14.286-20.603 21.076-31.78v54.659c-20.028 16.402-39.083 32.534-51.506 45.762-17.196 18.309-22.573 39.561-14.388 56.853 5.958 12.57 18.529 20.381 32.804 20.381 16.604 0 28.586-6.9 37.701-21.714 7.748-12.589 11.513-30.284 11.513-54.1v-39.611c3.41-2.775 6.831-5.555 10.238-8.321 10.645-8.643 21.646-17.578 31.506-25.886a7.97 7.97 0 00.938-11.288c-2.879-3.376-7.969-3.793-11.362-.932z"/></g></svg>